<?xml version="1.0" encoding="UTF-8"?>
<svg id="Layer_2" data-name="Layer 2" xmlns="http://www.w3.org/2000/svg" viewBox="0 0 600 491.55">
  <defs>
    <style>
      .cls-1 {
        fill: #2a2a2a;
        stroke-width: 0px;
      }
    </style>
  </defs>
  <g id="Layer_1-2" data-name="Layer 1">
    <g id="c">
      <g id="d">
        <path class="cls-1" d="m600,483.01c0,4.71-3.31,8.54-7.38,8.54h-240.08c-11.75,0-23.02-5.4-31.33-15l-133.54-154.37c-8.31-9.6-19.58-15-31.33-15H7.38c-4.08,0-7.38-3.82-7.38-8.54v-105.74c0-4.71,3.3-8.54,7.38-8.54h148.96c11.75,0,23.02-5.4,31.33-15L321.21,15c8.31-9.6,19.58-15,31.33-15h240.08c4.08,0,7.38,3.82,7.38,8.54v105.73c0,4.72-3.31,8.54-7.39,8.54h-187.01c-11.76,0-23.03,5.4-31.34,15.01l-62.05,71.73c-17.31,20.01-17.31,52.45,0,72.46l62.05,71.73c8.31,9.61,19.59,15.01,31.34,15.01h187.01c4.08,0,7.39,3.82,7.39,8.54v105.73h0Z"/>
      </g>
    </g>
  </g>
</svg>